<svg id="Layer_1" data-name="Layer 1" xmlns="http://www.w3.org/2000/svg" viewBox="0 0 1119 626"><defs><style>.cls-1{fill:#d8abab;stroke:#000;stroke-miterlimit:10;}.cls-2{font-size:60px;font-family:MyriadPro-Regular, Myriad Pro;}.cls-3{letter-spacing:0.01em;}.cls-4{letter-spacing:-0.03em;}.cls-5{letter-spacing:0.02em;}.cls-6{letter-spacing:-0.01em;}.cls-7{letter-spacing:0em;}.cls-8{letter-spacing:0.01em;}.cls-9{letter-spacing:-0.01em;}.cls-10{letter-spacing:0em;}.cls-11{letter-spacing:0em;}.cls-12{letter-spacing:0em;}.cls-13{letter-spacing:-0.01em;}</style></defs><rect class="cls-1" x="0.5" y="0.5" width="1118" height="625"/><text class="cls-2" transform="translate(296.16 210.96)"><tspan class="cls-3">M</tspan><tspan x="48.6" y="0">elissa </tspan><tspan class="cls-3" x="196.02" y="0">M</tspan><tspan x="244.62" y="0">cIsaac</tspan><tspan class="cls-4" x="-195.63" y="72">P</tspan><tspan x="-165.27" y="72">ac</tspan><tspan class="cls-5" x="-109.47" y="72">k</tspan><tspan x="-80.25" y="72">a</tspan><tspan class="cls-6" x="-51.33" y="72">g</tspan><tspan x="-18.15" y="72">ing </tspan><tspan class="cls-7" x="75.45" y="72">D</tspan><tspan x="115.65" y="72">esi</tspan><tspan class="cls-6" x="183.51" y="72">g</tspan><tspan x="216.69" y="72">ner/</tspan><tspan class="cls-8" x="320.25" y="72">I</tspan><tspan x="335.18" y="72">llus</tspan><tspan class="cls-9" x="420.32" y="72">t</tspan><tspan x="439.82" y="72">e</tspan><tspan class="cls-10" x="469.88" y="72">r</tspan><tspan class="cls-11" x="489.2" y="72">a</tspan><tspan class="cls-9" x="517.88" y="72">t</tspan><tspan x="537.38" y="72">or</tspan><tspan class="cls-12" x="-100.62" y="144">h</tspan><tspan x="-67.56" y="144">ttps://linkedin.</tspan><tspan class="cls-6" x="296.93" y="144">c</tspan><tspan x="323.45" y="144">om/in/</tspan><tspan class="cls-3" x="-88.86" y="216">M</tspan><tspan x="-40.26" y="216">elissam@mcisaa</tspan><tspan class="cls-13" x="361.26" y="216">c</tspan><tspan x="387.54" y="216">.net</tspan></text></svg>